<mxfile host="Electron" modified="2023-10-30T09:12:06.996Z" agent="Mozilla/5.0 (Windows NT 10.0; Win64; x64) AppleWebKit/537.36 (KHTML, like Gecko) draw.io/22.0.2 Chrome/114.0.5735.289 Electron/25.8.4 Safari/537.36" etag="wOWl04bENT83cxEmC-mg" version="22.0.2" type="device">
  <diagram name="Page-1" id="dEAMheNSpT8eap9jJ3Zl">
    <mxGraphModel dx="989" dy="589" grid="1" gridSize="10" guides="1" tooltips="1" connect="1" arrows="1" fold="1" page="1" pageScale="1" pageWidth="850" pageHeight="1100" math="0" shadow="0">
      <root>
        <mxCell id="0" />
        <mxCell id="1" parent="0" />
        <mxCell id="tlvYYqKcDGYKTBeKxEMZ-1" value="User" style="shape=umlLifeline;perimeter=lifelinePerimeter;whiteSpace=wrap;html=1;container=0;dropTarget=0;collapsible=0;recursiveResize=0;outlineConnect=0;portConstraint=eastwest;newEdgeStyle={&quot;edgeStyle&quot;:&quot;elbowEdgeStyle&quot;,&quot;elbow&quot;:&quot;vertical&quot;,&quot;curved&quot;:0,&quot;rounded&quot;:0};" vertex="1" parent="1">
          <mxGeometry x="140" y="160" width="100" height="480" as="geometry" />
        </mxCell>
        <mxCell id="tlvYYqKcDGYKTBeKxEMZ-64" style="edgeStyle=elbowEdgeStyle;rounded=0;orthogonalLoop=1;jettySize=auto;html=1;elbow=vertical;curved=0;" edge="1" parent="tlvYYqKcDGYKTBeKxEMZ-1" source="tlvYYqKcDGYKTBeKxEMZ-2" target="tlvYYqKcDGYKTBeKxEMZ-1">
          <mxGeometry relative="1" as="geometry" />
        </mxCell>
        <mxCell id="tlvYYqKcDGYKTBeKxEMZ-2" value="" style="html=1;points=[];perimeter=orthogonalPerimeter;outlineConnect=0;targetShapes=umlLifeline;portConstraint=eastwest;newEdgeStyle={&quot;edgeStyle&quot;:&quot;elbowEdgeStyle&quot;,&quot;elbow&quot;:&quot;vertical&quot;,&quot;curved&quot;:0,&quot;rounded&quot;:0};" vertex="1" parent="tlvYYqKcDGYKTBeKxEMZ-1">
          <mxGeometry x="45" y="70" width="10" height="220" as="geometry" />
        </mxCell>
        <mxCell id="tlvYYqKcDGYKTBeKxEMZ-38" value="" style="html=1;points=[];perimeter=orthogonalPerimeter;outlineConnect=0;targetShapes=umlLifeline;portConstraint=eastwest;newEdgeStyle={&quot;edgeStyle&quot;:&quot;elbowEdgeStyle&quot;,&quot;elbow&quot;:&quot;vertical&quot;,&quot;curved&quot;:0,&quot;rounded&quot;:0};" vertex="1" parent="tlvYYqKcDGYKTBeKxEMZ-1">
          <mxGeometry x="45" y="320" width="10" height="130" as="geometry" />
        </mxCell>
        <mxCell id="tlvYYqKcDGYKTBeKxEMZ-4" value="System" style="shape=umlLifeline;perimeter=lifelinePerimeter;whiteSpace=wrap;html=1;container=0;dropTarget=0;collapsible=0;recursiveResize=0;outlineConnect=0;portConstraint=eastwest;newEdgeStyle={&quot;edgeStyle&quot;:&quot;elbowEdgeStyle&quot;,&quot;elbow&quot;:&quot;vertical&quot;,&quot;curved&quot;:0,&quot;rounded&quot;:0};" vertex="1" parent="1">
          <mxGeometry x="520" y="160" width="100" height="480" as="geometry" />
        </mxCell>
        <mxCell id="tlvYYqKcDGYKTBeKxEMZ-5" value="" style="html=1;points=[];perimeter=orthogonalPerimeter;outlineConnect=0;targetShapes=umlLifeline;portConstraint=eastwest;newEdgeStyle={&quot;edgeStyle&quot;:&quot;elbowEdgeStyle&quot;,&quot;elbow&quot;:&quot;vertical&quot;,&quot;curved&quot;:0,&quot;rounded&quot;:0};" vertex="1" parent="tlvYYqKcDGYKTBeKxEMZ-4">
          <mxGeometry x="45" y="70" width="10" height="380" as="geometry" />
        </mxCell>
        <mxCell id="tlvYYqKcDGYKTBeKxEMZ-44" style="edgeStyle=elbowEdgeStyle;rounded=0;orthogonalLoop=1;jettySize=auto;html=1;elbow=vertical;curved=0;" edge="1" parent="tlvYYqKcDGYKTBeKxEMZ-4">
          <mxGeometry relative="1" as="geometry">
            <mxPoint x="55" y="290" as="sourcePoint" />
            <mxPoint x="55" y="400" as="targetPoint" />
            <Array as="points">
              <mxPoint x="100" y="400" />
            </Array>
          </mxGeometry>
        </mxCell>
        <mxCell id="tlvYYqKcDGYKTBeKxEMZ-50" value="Check valid data" style="edgeLabel;html=1;align=center;verticalAlign=middle;resizable=0;points=[];" vertex="1" connectable="0" parent="tlvYYqKcDGYKTBeKxEMZ-44">
          <mxGeometry x="0.0881" y="-2" relative="1" as="geometry">
            <mxPoint x="33" y="7" as="offset" />
          </mxGeometry>
        </mxCell>
        <mxCell id="tlvYYqKcDGYKTBeKxEMZ-10" value="Profile Screen" style="shape=umlLifeline;perimeter=lifelinePerimeter;whiteSpace=wrap;html=1;container=0;dropTarget=0;collapsible=0;recursiveResize=0;outlineConnect=0;portConstraint=eastwest;newEdgeStyle={&quot;edgeStyle&quot;:&quot;elbowEdgeStyle&quot;,&quot;elbow&quot;:&quot;vertical&quot;,&quot;curved&quot;:0,&quot;rounded&quot;:0};" vertex="1" parent="1">
          <mxGeometry x="325" y="160" width="100" height="480" as="geometry" />
        </mxCell>
        <mxCell id="tlvYYqKcDGYKTBeKxEMZ-11" value="" style="html=1;points=[];perimeter=orthogonalPerimeter;outlineConnect=0;targetShapes=umlLifeline;portConstraint=eastwest;newEdgeStyle={&quot;edgeStyle&quot;:&quot;elbowEdgeStyle&quot;,&quot;elbow&quot;:&quot;vertical&quot;,&quot;curved&quot;:0,&quot;rounded&quot;:0};" vertex="1" parent="tlvYYqKcDGYKTBeKxEMZ-10">
          <mxGeometry x="45" y="120" width="10" height="90" as="geometry" />
        </mxCell>
        <mxCell id="tlvYYqKcDGYKTBeKxEMZ-28" style="edgeStyle=elbowEdgeStyle;rounded=0;orthogonalLoop=1;jettySize=auto;html=1;elbow=vertical;curved=0;" edge="1" parent="1" source="tlvYYqKcDGYKTBeKxEMZ-5">
          <mxGeometry relative="1" as="geometry">
            <mxPoint x="200" y="260" as="targetPoint" />
            <Array as="points">
              <mxPoint x="470" y="260" />
            </Array>
          </mxGeometry>
        </mxCell>
        <mxCell id="tlvYYqKcDGYKTBeKxEMZ-29" value="Requires identity &lt;br&gt;authentication" style="edgeLabel;html=1;align=center;verticalAlign=middle;resizable=0;points=[];" vertex="1" connectable="0" parent="tlvYYqKcDGYKTBeKxEMZ-28">
          <mxGeometry x="-0.0337" y="1" relative="1" as="geometry">
            <mxPoint x="-108" y="-1" as="offset" />
          </mxGeometry>
        </mxCell>
        <mxCell id="tlvYYqKcDGYKTBeKxEMZ-30" style="edgeStyle=elbowEdgeStyle;rounded=0;orthogonalLoop=1;jettySize=auto;html=1;elbow=vertical;curved=0;dashed=1;" edge="1" parent="1" source="tlvYYqKcDGYKTBeKxEMZ-2">
          <mxGeometry relative="1" as="geometry">
            <mxPoint x="370" y="310" as="targetPoint" />
            <Array as="points">
              <mxPoint x="360" y="310" />
              <mxPoint x="258" y="300" />
            </Array>
          </mxGeometry>
        </mxCell>
        <mxCell id="tlvYYqKcDGYKTBeKxEMZ-32" value="Tap to &quot;profile&quot; icon" style="edgeLabel;html=1;align=center;verticalAlign=middle;resizable=0;points=[];" vertex="1" connectable="0" parent="tlvYYqKcDGYKTBeKxEMZ-30">
          <mxGeometry x="-0.4857" y="-3" relative="1" as="geometry">
            <mxPoint x="40" y="-3" as="offset" />
          </mxGeometry>
        </mxCell>
        <mxCell id="tlvYYqKcDGYKTBeKxEMZ-33" style="edgeStyle=elbowEdgeStyle;rounded=0;orthogonalLoop=1;jettySize=auto;html=1;elbow=vertical;curved=0;dashed=1;" edge="1" parent="1">
          <mxGeometry relative="1" as="geometry">
            <mxPoint x="380" y="339.9966666666667" as="sourcePoint" />
            <mxPoint x="569.5000000000002" y="339.9966666666667" as="targetPoint" />
          </mxGeometry>
        </mxCell>
        <mxCell id="tlvYYqKcDGYKTBeKxEMZ-34" value="Request authenticate" style="edgeLabel;html=1;align=center;verticalAlign=middle;resizable=0;points=[];" vertex="1" connectable="0" parent="tlvYYqKcDGYKTBeKxEMZ-33">
          <mxGeometry x="-0.2866" relative="1" as="geometry">
            <mxPoint x="23" as="offset" />
          </mxGeometry>
        </mxCell>
        <mxCell id="tlvYYqKcDGYKTBeKxEMZ-35" style="edgeStyle=elbowEdgeStyle;rounded=0;orthogonalLoop=1;jettySize=auto;html=1;elbow=vertical;curved=0;" edge="1" parent="1" source="tlvYYqKcDGYKTBeKxEMZ-5">
          <mxGeometry relative="1" as="geometry">
            <mxPoint x="200" y="420" as="targetPoint" />
            <Array as="points">
              <mxPoint x="390" y="420" />
            </Array>
          </mxGeometry>
        </mxCell>
        <mxCell id="tlvYYqKcDGYKTBeKxEMZ-36" value="Requires user enter ID, Name, DOB, images of ID" style="edgeLabel;html=1;align=center;verticalAlign=middle;resizable=0;points=[];" vertex="1" connectable="0" parent="tlvYYqKcDGYKTBeKxEMZ-35">
          <mxGeometry x="0.3333" y="1" relative="1" as="geometry">
            <mxPoint x="58" as="offset" />
          </mxGeometry>
        </mxCell>
        <mxCell id="tlvYYqKcDGYKTBeKxEMZ-42" style="edgeStyle=elbowEdgeStyle;rounded=0;orthogonalLoop=1;jettySize=auto;html=1;elbow=vertical;curved=0;dashed=1;" edge="1" parent="1" source="tlvYYqKcDGYKTBeKxEMZ-38" target="tlvYYqKcDGYKTBeKxEMZ-4">
          <mxGeometry relative="1" as="geometry">
            <Array as="points">
              <mxPoint x="360" y="500" />
            </Array>
          </mxGeometry>
        </mxCell>
        <mxCell id="tlvYYqKcDGYKTBeKxEMZ-43" value="Enter required form" style="edgeLabel;html=1;align=center;verticalAlign=middle;resizable=0;points=[];" vertex="1" connectable="0" parent="tlvYYqKcDGYKTBeKxEMZ-42">
          <mxGeometry x="-0.4393" y="3" relative="1" as="geometry">
            <mxPoint x="110" y="3" as="offset" />
          </mxGeometry>
        </mxCell>
        <mxCell id="tlvYYqKcDGYKTBeKxEMZ-55" style="edgeStyle=elbowEdgeStyle;rounded=0;orthogonalLoop=1;jettySize=auto;html=1;elbow=vertical;curved=0;" edge="1" parent="1" source="tlvYYqKcDGYKTBeKxEMZ-5" target="tlvYYqKcDGYKTBeKxEMZ-38">
          <mxGeometry relative="1" as="geometry">
            <Array as="points">
              <mxPoint x="390" y="580" />
            </Array>
          </mxGeometry>
        </mxCell>
        <mxCell id="tlvYYqKcDGYKTBeKxEMZ-56" value="Send message log&amp;nbsp;" style="edgeLabel;html=1;align=center;verticalAlign=middle;resizable=0;points=[];" vertex="1" connectable="0" parent="tlvYYqKcDGYKTBeKxEMZ-55">
          <mxGeometry x="0.4252" relative="1" as="geometry">
            <mxPoint x="73" as="offset" />
          </mxGeometry>
        </mxCell>
        <mxCell id="tlvYYqKcDGYKTBeKxEMZ-65" style="edgeStyle=elbowEdgeStyle;rounded=0;orthogonalLoop=1;jettySize=auto;html=1;elbow=vertical;curved=0;" edge="1" parent="1">
          <mxGeometry relative="1" as="geometry">
            <mxPoint x="189.5" y="240" as="sourcePoint" />
            <mxPoint x="189.5" y="280" as="targetPoint" />
            <Array as="points">
              <mxPoint x="120" y="240" />
            </Array>
          </mxGeometry>
        </mxCell>
        <mxCell id="tlvYYqKcDGYKTBeKxEMZ-66" value="User login&lt;br&gt;success" style="edgeLabel;html=1;align=center;verticalAlign=middle;resizable=0;points=[];" vertex="1" connectable="0" parent="tlvYYqKcDGYKTBeKxEMZ-65">
          <mxGeometry x="-0.3013" y="-1" relative="1" as="geometry">
            <mxPoint x="3" y="11" as="offset" />
          </mxGeometry>
        </mxCell>
      </root>
    </mxGraphModel>
  </diagram>
</mxfile>
